<svg width="40" height="42" fill="none" xmlns="http://www.w3.org/2000/svg"><g clip-path="url(#a)"><path d="M39.988.751H.376a.012.012 0 0 0-.012.012v40.474c0 .006.005.012.012.012h39.612a.012.012 0 0 0 .012-.012V.763a.012.012 0 0 0-.012-.012Z" fill="#7289DA"/><path d="m27.15 31.757-1.626-1.977c3.174-.87 4.412-3.085 4.412-3.085-4.025 3.876-15.018 4.034-19.276 0 0 0 1.084 2.056 4.336 3.085l-1.78 1.977c-5.42-.079-7.51-3.797-7.51-3.797 0-8.226 3.561-14.79 3.561-14.79 3.639-2.61 6.967-2.61 6.967-2.61l.232.316c-4.49 1.265-6.425 3.322-6.425 3.322 5.264-3.639 16.102-3.322 20.36 0 .077-.08-2.555-2.215-6.658-3.322l.387-.317s3.33 0 6.968 2.61c0 0 3.56 6.566 3.56 14.791 0 0-2.09 3.718-7.509 3.797Z" fill="#fff"/><path d="M15.537 25.588c1.41 0 2.555-1.24 2.555-2.769 0-1.529-1.144-2.768-2.555-2.768-1.41 0-2.555 1.24-2.555 2.768 0 1.53 1.144 2.769 2.555 2.769ZM24.517 25.588c1.411 0 2.555-1.24 2.555-2.769 0-1.529-1.144-2.768-2.555-2.768-1.41 0-2.554 1.24-2.554 2.768 0 1.53 1.144 2.769 2.554 2.769Z" fill="#7289DA"/></g><defs><clipPath id="a"><rect x=".364" y=".751" width="39.636" height="40.497" rx="4" fill="#fff"/></clipPath></defs></svg>
