<svg width="41" height="42" fill="none" xmlns="http://www.w3.org/2000/svg"><g clip-path="url(#a)"><path d="M40.065.734H.11A.012.012 0 0 0 .1.746v40.508c0 .007.005.012.011.012h39.954a.012.012 0 0 0 .012-.012V.746a.012.012 0 0 0-.012-.012Z" fill="#1877F2"/><path d="m27.865 26.858.89-5.858H23.21v-3.8c0-1.599.773-3.166 3.256-3.166h2.522V9.046s-2.288-.396-4.474-.396c-4.567 0-7.55 2.803-7.55 7.885V21H11.89v5.858h5.075v14.408h6.246V26.858h4.654Z" fill="#fff"/></g><defs><clipPath id="a"><rect x=".1" y=".734" width="39.977" height="40.532" rx="6" fill="#fff"/></clipPath></defs></svg>
