<svg width="41" height="39" fill="none" xmlns="http://www.w3.org/2000/svg"><path d="M2.205 10.908c1.29-2.498 3.111-4.61 5.407-6.365 3.11-2.389 6.68-3.827 10.68-4.268 4.7-.518 9.117.31 13.201 2.583a23.37 23.37 0 0 1 2.87 1.902c.224.17.2.27.008.44a845.735 845.735 0 0 0-5.548 5.166c-.216.201-.333.186-.566.023-5.39-3.858-13.25-2.814-17.268 2.29-.707.896-1.281 1.863-1.68 2.915-.034.092-.1.177-.15.27-1.073-.758-2.154-1.516-3.22-2.281-1.247-.89-2.495-1.778-3.734-2.675Z" fill="#E94335"/><path d="M9.159 23.117c.357.735.657 1.5 1.106 2.189 1.888 2.876 4.583 4.724 8.135 5.382 3.203.595 6.28.193 9.15-1.3.1-.046.2-.092.291-.139.05.047.092.101.142.14 2.145 1.546 4.3 3.093 6.446 4.64-1.031.95-2.204 1.716-3.452 2.38-3.618 1.919-7.536 2.692-11.662 2.398-5.14-.371-9.574-2.258-13.234-5.66-1.606-1.493-2.928-3.178-3.885-5.104.89-.634 1.78-1.26 2.67-1.894 1.431-1.013 2.862-2.019 4.293-3.032Z" fill="#34A853"/><path d="M34.438 34.028c-2.146-1.546-4.3-3.093-6.447-4.64-.05-.038-.1-.092-.141-.138.74-.534 1.497-1.052 2.104-1.733a8.76 8.76 0 0 0 2.038-3.835c.042-.178.009-.24-.183-.232-.1.008-.19 0-.29 0-3.394 0-6.797-.008-10.19.008-.375 0-.458-.093-.45-.425.017-2.243.017-4.486 0-6.728 0-.286.084-.363.391-.363 6.222.007 12.444.007 18.675 0 .266 0 .374.061.44.324.508 2.127.475 4.261.167 6.41a19.78 19.78 0 0 1-1.39 4.988c-1.023 2.374-2.528 4.447-4.508 6.225-.075.054-.15.093-.216.14Z" fill="#4285F3"/><path d="M9.158 23.118c-1.43 1.013-2.861 2.018-4.292 3.03-.89.627-1.78 1.261-2.67 1.895-.69-1.19-1.14-2.45-1.506-3.75-.698-2.513-.807-5.065-.424-7.624.3-2.011.923-3.944 1.93-5.754 1.248.89 2.487 1.787 3.735 2.676 1.073.766 2.146 1.523 3.219 2.281-.183.828-.441 1.64-.524 2.49-.15 1.547.008 3.055.482 4.54.033.061.042.138.05.216Z" fill="#FABB06"/></svg>
