<svg width="112" height="112" fill="none" xmlns="http://www.w3.org/2000/svg"><path d="m85.07 41.725.144.208L96.778 58.78c.09.132 0 .33-.124.335l-10.383.147a.175.175 0 0 1-.089-.027.163.163 0 0 1-.06-.068c-.615-1.228-7.387-13.695-8.567-15.882-.075-.137 0-.316.139-.316 1.081.018 4.554-.034 7.376-1.243Z" fill="#245A9A"/><path d="M75.771 21.582s16.735-.935 17.5 9.494c.913 12.425-16.14 12.878-16.596 12.214.062-1.434-.904-21.708-.904-21.708Z" fill="#245A9A"/><path d="M76.647 27.89s8.416-1.677 8.758 4.872c.342 6.548-8.09 6.557-8.292 6.221 0-.74-.466-11.093-.466-11.093Z" fill="#E3D7F1"/><path d="m72.263 22.437-.876-14.905M42.454 105.468l-.876-14.905" stroke="#245A9A" stroke-width="1.034" stroke-miterlimit="10"/><path d="M35.498 54.568 37.24 91.44l7.843-.41-.704-15.74-.013-.319-.993-22.108-7.934.42.059 1.285Z" fill="#245A9A" stroke="#245A9A" stroke-width=".517" stroke-miterlimit="10"/><path d="m56.069 29.45-1.34.05.352 8.715 1.34-.05-.352-8.714ZM39.855 44.47l-1.34.05.333 8.222 1.34-.049-.333-8.222ZM58.696 75.042l-1.338.09.58 8.208 1.337-.09-.579-8.208ZM74.564 59.65l-1.34.05.333 8.222 1.34-.05-.333-8.222Z" fill="#245A9A" stroke="#245A9A" stroke-width=".129" stroke-miterlimit="10"/><path d="m52.148 39.047 1.739 36.872 7.855-.41-.709-15.745-.013-.314-.994-22.108-7.928.41.05 1.295ZM68.798 23.265l1.756 36.872 7.848-.408-.714-15.742-.013-.315-.962-22.112-7.956.413.041 1.292Z" fill="#245A9A"/><path d="M56 109.148c29.271 0 53-23.729 53-53s-23.729-53-53-53-53 23.729-53 53 23.729 53 53 53Z" stroke="#2A5099" stroke-width="5.172" stroke-miterlimit="10"/></svg>
