<svg width="40" height="40" fill="none" xmlns="http://www.w3.org/2000/svg"><rect y=".182" width="39.636" height="39.636" rx="3" fill="#37AEE2"/><path d="M14.683 31.2c-.851 0-.774-.3-1.006-1.054l-2.476-7.912 18.956-10.851" fill="#C8DAEA"/><path d="M14.648 31.2c.494 0 .776-.283 1.13-.567l3.178-3.051L15 25.169" fill="#A9C9DD"/><path d="m15.06 25.002 10.274 7.587c1.066.69 1.979.306 2.283-1.073l4.186-19.771c.38-1.686-.685-2.453-1.827-1.916L5.548 19.33c-1.598.613-1.598 1.61-.304 1.993l6.316 1.992 14.459-9.272c.685-.383 1.294-.23.837.306" fill="#F6FBFE"/></svg>
