<svg width="204" height="203" fill="none" xmlns="http://www.w3.org/2000/svg"><circle cx="102.202" cy="101.25" r="98.75" stroke="#A790C6" stroke-width="5"/><path d="M108.862 100.116h-11.81c-5.449 0-9.887-4.435-9.887-9.894 0-5.45 4.438-9.89 9.886-9.89h21.446a3.729 3.729 0 0 0 3.724-3.727 3.726 3.726 0 0 0-3.724-3.729h-11.814V65.19c0-2.056-1.67-3.73-3.727-3.73a3.732 3.732 0 0 0-3.733 3.73v7.687H97.05c-9.566 0-17.341 7.785-17.341 17.346 0 9.411 7.524 17.092 16.872 17.345.069.006.144.009.216.009h12.065c5.448 0 9.886 4.433 9.886 9.887 0 5.456-4.438 9.891-9.886 9.891H86.551a3.738 3.738 0 0 0-3.736 3.731c0 2.058 1.68 3.73 3.736 3.73h12.673v7.681a3.727 3.727 0 0 0 3.733 3.728 3.726 3.726 0 0 0 3.727-3.728v-7.681h2.18c9.565 0 17.344-7.785 17.344-17.352-.002-9.562-7.78-17.347-17.346-17.347Zm-6.66-69.146c-38.753 0-70.28 31.527-70.28 70.28s31.527 70.28 70.28 70.28 70.28-31.527 70.28-70.28-31.527-70.28-70.28-70.28Zm0 132.898c-34.528 0-62.618-28.09-62.618-62.618 0-34.528 28.09-62.618 62.618-62.618 34.528 0 62.618 28.09 62.618 62.618 0 34.528-28.09 62.618-62.618 62.618Z" fill="#A790C6"/></svg>
