<svg width="205" height="205" fill="none" xmlns="http://www.w3.org/2000/svg"><path d="M153.167 56.673c0-1.499.268-.696-16.784-17.792-1.176-1.124 3.02-.776-66.07-.776a2.671 2.671 0 0 0-2.672 2.676v13.377H54.278a2.67 2.67 0 0 0-2.673 2.675v107.018a2.675 2.675 0 0 0 2.673 2.675h80.181a2.672 2.672 0 0 0 2.672-2.675v-13.378h13.364a2.671 2.671 0 0 0 2.672-2.675V56.673Zm-9.113-2.515h-6.923v-6.93l6.923 6.93Zm-12.268 107.017H56.95V59.508h58.8v13.378a2.677 2.677 0 0 0 2.672 2.675h13.364v85.614Zm-10.691-97.894 6.922 6.93h-6.922v-6.93Zm16.036 81.842c0-73.04.294-72.103-.267-73.334-.294-.696 1.042.749-16.544-16.855-1.149-1.124.909-.776-47.333-.776V43.456h58.799v13.377a2.674 2.674 0 0 0 2.673 2.675h13.363v85.615h-10.691Z" fill="#A790C6"/><circle cx="102.386" cy="102.29" r="99.795" stroke="#A790C6" stroke-width="5"/><path d="M72.28 87.987a3.803 3.803 0 0 1 5.377 0l17.926 17.926 17.926-17.926a3.803 3.803 0 0 1 5.378 5.378l-17.926 17.925 17.926 17.926a3.803 3.803 0 0 1-5.378 5.378l-17.926-17.926-17.925 17.926a3.803 3.803 0 1 1-5.378-5.378l17.925-17.926L72.28 93.365a3.803 3.803 0 0 1 0-5.378Z" fill="#A790C6"/></svg>
