<svg width="203" height="203" fill="none" xmlns="http://www.w3.org/2000/svg"><circle cx="101.25" cy="101.291" r="98.75" stroke="#A790C6" stroke-width="5"/><path d="M103.668 33.643c-1.067-1.597-3.712-1.597-4.779 0-4.323 6.482-38.106 21.688-50.446 21.688-1.584 0-4.002 1.288-4.002 2.872v54.55c0 28.07 52.018 56.462 54.903 57.276.252.069 1.079.107 1.344.107.265 0 1.938-.038 2.191-.107 2.392-.676 55.18-31.176 55.18-54.404V58.203c0-1.584-2.417-2.872-4.002-2.872-13.83 0-46.192-15.401-50.389-21.688Zm48.079 81.982c0 17.333-43.156 44.677-50.491 48.502-7.164-3.648-50.503-29.055-50.503-51.374V60.886c18.936-1.622 41.407-13.237 50.516-21.417 8.887 8.092 31.542 19.934 50.478 21.442v54.714Z" fill="#A790C6"/><g stroke="#A790C6" stroke-width="7" stroke-linecap="round"><path d="m74.47 100.557 16.693 16.693M91.163 117.25l36.869-36.869"/></g></svg>
