<svg width="204" height="203" fill="none" xmlns="http://www.w3.org/2000/svg"><circle cx="101.983" cy="101.25" r="98.75" stroke="#A790C6" stroke-width="5"/><g fill="#A790C6"><path d="M60.316 147.347a4.416 4.416 0 0 1-3.135-1.298 4.429 4.429 0 0 1 0-6.267l83.331-83.33a4.429 4.429 0 0 1 6.267 0 4.428 4.428 0 0 1 0 6.267l-83.33 83.33a4.41 4.41 0 0 1-3.133 1.298ZM72.83 91.589c-4.995 0-9.99-1.9-13.79-5.702-7.605-7.605-7.605-19.976 0-27.58 7.605-7.605 19.979-7.605 27.582 0 7.604 7.604 7.604 19.977 0 27.58a19.452 19.452 0 0 1-13.793 5.702Zm-7.525-11.971c4.149 4.148 10.897 4.147 15.045 0s4.148-10.897 0-15.046c-4.146-4.147-10.896-4.147-15.043 0-4.147 4.149-4.147 10.899-.002 15.046ZM131.136 149.897c-4.993 0-9.988-1.901-13.789-5.704a19.37 19.37 0 0 1-5.714-13.788c0-5.21 2.03-10.108 5.714-13.791a19.373 19.373 0 0 1 13.79-5.714c5.209 0 10.106 2.03 13.789 5.714 7.604 7.605 7.604 19.976 0 27.581-3.801 3.801-8.794 5.702-13.79 5.702Zm.001-30.132a10.562 10.562 0 0 0-7.522 3.117 10.566 10.566 0 0 0-3.117 7.523c0 2.84 1.106 5.51 3.117 7.521 4.147 4.147 10.895 4.15 15.043 0 4.147-4.149 4.147-10.897 0-15.044a10.558 10.558 0 0 0-7.521-3.117Z"/></g></svg>
