<svg xmlns="http://www.w3.org/2000/svg" width="82" height="82" fill="none"><path d="M81.413 41.207C81.413 19.037 63.377 1 41.207 1S1 19.037 1 41.207c0 11.085 4.508 21.136 11.788 28.415.036.034.067.07.106.1 7.27 7.223 17.279 11.692 28.313 11.692 10.867 0 20.733-4.341 27.977-11.371.04-.038.084-.072.12-.113 7.464-7.303 12.11-17.48 12.11-28.723ZM41.207 4.422c20.283 0 36.785 16.502 36.785 36.785 0 9.003-3.261 17.25-8.653 23.65-1.967-14.2-10.085-18.233-17.892-19.347 5.238-3.38 8.722-9.251 8.722-15.934 0-10.456-8.507-18.962-18.962-18.962-10.456 0-18.962 8.506-18.962 18.962 0 6.672 3.471 12.54 8.696 15.918-8.856 1.053-12.934 5.003-17.715 19.53-5.476-6.422-8.804-14.732-8.804-23.817 0-20.283 16.502-36.785 36.785-36.785Zm-.04 40.693c-8.55-.023-15.5-6.983-15.5-15.54 0-8.567 6.97-15.54 15.54-15.54s15.54 6.973 15.54 15.54c0 8.554-6.945 15.51-15.49 15.538l-.09.002ZM15.914 67.846c6.067-19.294 9.85-19.309 24.91-19.309l.345-.002.038.002.048-.002 1.32-.007c9.915-.08 22.253-.177 23.656 19.562-6.57 6.121-15.354 9.9-25.024 9.9-9.8 0-18.694-3.875-25.293-10.144Z" fill="#F6F6F6" stroke="#A790C6" stroke-width=".477"/></svg>
