<svg xmlns="http://www.w3.org/2000/svg" width="62" height="65" fill="none"><path d="M60.475 5.361H49.204L35.308 1.104a6.27 6.27 0 0 0-2.59-.23 6.152 6.152 0 0 0-2.444.838l-8.373 5.051a.798.798 0 0 0-.23.208.744.744 0 0 0-.133.574c.02.099.059.194.117.278a.79.79 0 0 0 .221.216.845.845 0 0 0 .611.126.849.849 0 0 0 .297-.11l8.373-5.045a4.446 4.446 0 0 1 1.77-.604 4.531 4.531 0 0 1 1.874.17l14.024 4.285a.846.846 0 0 0 .252.037H59.66v12.895h-6.08a.857.857 0 0 0-.425.112.79.79 0 0 0-.301.303c-.916 1.455-2.315 2.588-3.982 3.224v-3.45c1.31-.525 2.709-1.438 3.601-3.03a.736.736 0 0 0-.093-.85.81.81 0 0 0-.248-.19.86.86 0 0 0-.906.088.782.782 0 0 0-.201.233c-1.554 2.79-5.418 2.915-5.44 2.915-5.174 0-6.668-3.393-6.728-3.534a.779.779 0 0 0-.3-.357.856.856 0 0 0-.463-.135h-7.68a2.308 2.308 0 0 1-.852-.141c-.271-.1-.519-.25-.727-.44a2.05 2.05 0 0 1-.488-.672 1.943 1.943 0 0 1 0-1.593c.113-.252.28-.48.488-.671.208-.191.456-.341.727-.44.271-.1.56-.149.852-.142h9.167a.866.866 0 0 0 .6-.213.77.77 0 0 0 .187-.253.729.729 0 0 0-.187-.856.866.866 0 0 0-.6-.213h-9.167a4.039 4.039 0 0 0-1.484.252 3.85 3.85 0 0 0-1.263.773c-.363.334-.65.732-.847 1.171a3.398 3.398 0 0 0 0 2.777c.197.44.484.838.847 1.171a3.85 3.85 0 0 0 1.263.773 4.04 4.04 0 0 0 1.484.252h7.168c.683 1.177 2.87 4.026 8.02 4.026a9.363 9.363 0 0 0 1.635-.212v11.38c0 .3-.128.588-.354.8a1.248 1.248 0 0 1-.852.333H3.84c-.32 0-.625-.12-.852-.331a1.102 1.102 0 0 1-.355-.8V12.157c0-.3.127-.588.353-.8.227-.213.533-.332.853-.333h20.847a.865.865 0 0 0 .6-.213.768.768 0 0 0 .187-.253.729.729 0 0 0-.186-.856.866.866 0 0 0-.6-.213H3.84a2.947 2.947 0 0 0-2.006.784A2.598 2.598 0 0 0 1 12.156v19.698c.003.707.303 1.384.835 1.884s1.254.782 2.006.784h42.19a2.947 2.947 0 0 0 2.006-.784c.532-.5.832-1.177.835-1.884v-6.795a9.763 9.763 0 0 0 5.17-3.732h6.433c.217 0 .425-.08.578-.224a.745.745 0 0 0 .24-.543V6.13c0-.204-.086-.4-.24-.544a.846.846 0 0 0-.578-.225Z" fill="#fff"/><path d="M11.66 26.165v-8.113a4.586 4.586 0 0 0 2.312-1.133 4.035 4.035 0 0 0 1.226-2.137h14.219a.865.865 0 0 0 .566-.237.74.74 0 0 0 .232-.533.74.74 0 0 0-.232-.533.865.865 0 0 0-.566-.237H14.444a.87.87 0 0 0-.589.226.742.742 0 0 0-.244.545c0 .338-.071.673-.21.986-.14.313-.345.597-.604.836a2.81 2.81 0 0 1-.903.56c-.338.13-.7.197-1.066.197a.869.869 0 0 0-.583.225.742.742 0 0 0-.245.539v9.507c0 .101.022.202.063.295a.768.768 0 0 0 .181.25.84.84 0 0 0 .27.166c.102.039.21.058.32.058a2.907 2.907 0 0 1 1.967.756c.521.482.815 1.136.816 1.819 0 .1.021.2.063.294a.769.769 0 0 0 .18.25.89.89 0 0 0 .59.225h31.886a.89.89 0 0 0 .319-.059.838.838 0 0 0 .27-.166.767.767 0 0 0 .18-.25.719.719 0 0 0 .064-.294c.001-.683.295-1.337.816-1.82a2.907 2.907 0 0 1 1.968-.755c.11 0 .217-.02.319-.058a.84.84 0 0 0 .27-.166.768.768 0 0 0 .18-.25.719.719 0 0 0 .064-.295v-3.478a.719.719 0 0 0-.053-.305.765.765 0 0 0-.178-.26.84.84 0 0 0-.275-.176.894.894 0 0 0-.654 0 .839.839 0 0 0-.274.175.765.765 0 0 0-.178.261.719.719 0 0 0-.053.305v2.78a4.59 4.59 0 0 0-2.312 1.134 4.037 4.037 0 0 0-1.227 2.137H15.198A4.037 4.037 0 0 0 13.97 27.3a4.59 4.59 0 0 0-2.311-1.134Z" fill="#fff"/><path d="M30.237 19.615h1.64a.65.65 0 0 0 .463-.235.821.821 0 0 0 .19-.531.821.821 0 0 0-.19-.532.651.651 0 0 0-.464-.236h-.536v-.493a.854.854 0 0 0-.043-.303.785.785 0 0 0-.146-.26.685.685 0 0 0-.224-.175.617.617 0 0 0-.535 0 .687.687 0 0 0-.225.175.787.787 0 0 0-.146.26.856.856 0 0 0-.043.303v.512c-.56.048-1.082.342-1.45.818a2.604 2.604 0 0 0-.524 1.728c.034.631.287 1.222.705 1.645.418.423.966.643 1.528.614h.843a.74.74 0 0 1 .553.258.939.939 0 0 1 .229.622.94.94 0 0 1-.229.623.74.74 0 0 1-.553.257h-1.637a.614.614 0 0 0-.27.05.677.677 0 0 0-.23.163.777.777 0 0 0-.156.253.852.852 0 0 0 0 .602.777.777 0 0 0 .155.253.677.677 0 0 0 .231.164.614.614 0 0 0 .27.05h.535v.493a.814.814 0 0 0 .209.522.644.644 0 0 0 .472.213.644.644 0 0 0 .472-.213.813.813 0 0 0 .21-.522v-.517c.56-.046 1.082-.34 1.451-.817.37-.477.558-1.098.524-1.73a2.535 2.535 0 0 0-.706-1.645 2 2 0 0 0-1.53-.613h-.843a.703.703 0 0 1-.308-.056.776.776 0 0 1-.264-.188.889.889 0 0 1-.177-.29.974.974 0 0 1 0-.688.89.89 0 0 1 .177-.289.774.774 0 0 1 .264-.188.702.702 0 0 1 .308-.057Z" fill="#fff"/><path d="M30.26 22.37a.897.897 0 0 0-.26.622c0 .06.006.118.018.176.011.056.029.111.052.164a.758.758 0 0 0 .081.156.92.92 0 0 0 .242.245.992.992 0 0 0 .321.134.89.89 0 0 0 1.058-.875.893.893 0 0 0-.549-.817.88.88 0 0 0-.962.196h-.002Z" fill="#fff"/><path d="M30.15 23.495a.885.885 0 0 0 .823.382.895.895 0 0 0 .648-.382.738.738 0 0 0 .082-.152.747.747 0 0 0 .051-.16.781.781 0 0 0 .019-.168.856.856 0 0 0-.246-.639.887.887 0 0 0-.64-.268.902.902 0 0 0-.64.268.866.866 0 0 0-.246.639.89.89 0 0 0 .017.168.977.977 0 0 0 .131.312ZM55.762 40.642a3.833 3.833 0 0 0-5.121.389l-5.067 5.403a.79.79 0 0 0-.235.575.783.783 0 0 0 .257.565.804.804 0 0 0 .591.21.812.812 0 0 0 .563-.277l5.067-5.403a2.205 2.205 0 0 1 2.949-.223 2.152 2.152 0 0 1 .81 1.45 2.118 2.118 0 0 1-.48 1.588l-8.82 10.64a4.053 4.053 0 0 1-2.556 1.427l-17.073 2.438a5.758 5.758 0 0 0-2.415.94 5.664 5.664 0 0 0-1.744 1.896l-.467.826H6.316l8.135-11.86a11.404 11.404 0 0 1 4.674-3.942 11.584 11.584 0 0 1 6.067-.987c1.377.141 2.733.437 4.042.88.889.314 1.826.477 2.77.48h8.165a2.38 2.38 0 0 1 1.669.683c.442.437.691 1.029.692 1.646 0 .667-.27 1.305-.747 1.777a2.569 2.569 0 0 1-1.801.736h-7.48c-1.225 0-2.411.422-3.353 1.194L27.39 55.13a.787.787 0 0 0-.088 1.1.805.805 0 0 0 1.112.117l1.756-1.438a3.674 3.674 0 0 1 2.322-.827h7.486a4.185 4.185 0 0 0 2.933-1.2 4.072 4.072 0 0 0 1.217-2.894 3.888 3.888 0 0 0-1.162-2.763 3.996 3.996 0 0 0-2.8-1.146h-8.163a6.807 6.807 0 0 1-2.235-.39 20 20 0 0 0-4.4-.965 13.204 13.204 0 0 0-6.915 1.122 12.999 12.999 0 0 0-5.33 4.49L4.142 63.428a.784.784 0 0 0 .247 1.128.81.81 0 0 0 .416.112h17.689a.809.809 0 0 0 .698-.413l.698-1.24a4.071 4.071 0 0 1 1.254-1.362 4.14 4.14 0 0 1 1.735-.675l17.077-2.428a5.66 5.66 0 0 0 3.568-1.99l8.82-10.64a3.673 3.673 0 0 0 .386-4.158 3.735 3.735 0 0 0-.961-1.12h-.007Z" fill="#fff"/></svg>
