<svg width="71" height="71" fill="none" xmlns="http://www.w3.org/2000/svg"><path d="M35.5 69.193c18.678 0 33.82-15.143 33.82-33.822 0-18.68-15.142-33.822-33.82-33.822-18.68 0-33.823 15.143-33.823 33.822 0 18.68 15.143 33.822 33.822 33.822Z" fill="#fff"/><path d="M35.5 71C15.878 71 0 55.122 0 35.5S16.007 0 35.5 0 71 15.878 71 35.5 55.122 71 35.5 71Zm0-67.902c-17.814 0-32.273 14.458-32.273 32.273 0 17.814 14.459 32.273 32.273 32.273 17.815 0 32.273-14.459 32.273-32.273 0-17.815-14.458-32.273-32.273-32.273Z" fill="#fff"/><path opacity=".3" d="M35.5 9.165c-14.458 0-26.206 11.748-26.206 26.206S21.042 61.705 35.5 61.705 61.705 49.958 61.705 35.5c0-14.458-11.618-26.335-26.205-26.335Z" fill="#F6F7F6"/><path d="M35.5 63.255c-15.361 0-27.883-12.522-27.883-27.884C7.617 20.01 20.138 7.617 35.5 7.617c15.362 0 27.884 12.522 27.884 27.884 0 15.361-12.393 27.754-27.884 27.754Zm0-52.41c-13.554 0-24.656 11.101-24.656 24.656 0 13.554 11.102 24.656 24.656 24.656 13.555 0 24.657-11.102 24.657-24.656 0-13.555-10.973-24.657-24.657-24.657Z" fill="#A790C6"/><path d="M40.922 35.63c-.904-.517-1.808-1.033-2.97-1.291a85.026 85.026 0 0 0-2.84-.775 56.655 56.655 0 0 1-2.452-.775c-.646-.258-1.162-.645-1.678-1.032-.388-.388-.775-.775-1.033-1.42-.13-.388-.387-1.162-.387-2.324 0-.645.129-1.29.387-1.936.258-.646.516-1.162 1.033-1.55.387-.516 1.032-.903 1.807-1.161.774-.258 1.678-.517 2.71-.517 1.034 0 1.937.13 2.583.517.645.258 1.29.774 1.678 1.162a8.234 8.234 0 0 1 1.033 1.807c.258.774 1.032 1.162 1.936.903.775-.258 1.162-1.032.904-1.936-.388-1.033-.904-2.065-1.55-2.84-.774-.904-1.678-1.549-2.71-2.065a12.212 12.212 0 0 0-2.324-.646v-1.033c0-.774-.645-1.549-1.55-1.549-.774 0-1.548.646-1.548 1.55v1.032c-.904.13-1.678.258-2.324.646-1.162.516-2.065 1.032-2.71 1.807-.775.774-1.292 1.678-1.679 2.582-.387.903-.516 1.936-.516 2.969 0 1.42.258 2.71.645 3.614.387 1.033 1.033 1.808 1.807 2.453.775.646 1.55 1.162 2.582 1.55.904.386 1.807.645 2.84.903l2.711.774c.775.259 1.55.646 2.195 1.033a4.45 4.45 0 0 1 1.549 1.55c.387.645.645 1.548.645 2.581 0 .775-.129 1.55-.387 2.195-.258.645-.516 1.29-1.033 1.807-.387.516-1.033.903-1.678 1.162-.645.258-1.55.387-2.582.387-.903 0-1.678-.13-2.323-.387-.775-.259-1.291-.646-1.937-1.162a6.457 6.457 0 0 1-1.42-2.066c-.387-.774-1.162-1.161-1.936-.774-.775.387-1.162 1.162-.775 1.936a7.922 7.922 0 0 0 2.195 3.098c.904.775 1.936 1.42 2.969 1.808.387.129.904.258 1.42.387v1.162c0 .774.645 1.549 1.549 1.549.775 0 1.55-.646 1.55-1.55v-1.032c.903-.129 1.806-.258 2.58-.645a9.195 9.195 0 0 0 2.841-1.937c.775-.774 1.29-1.807 1.678-2.84.387-1.032.517-2.065.517-3.098 0-1.678-.388-3.098-1.033-4.13-1.162-.904-1.937-1.808-2.97-2.454Z" fill="#A790C6"/></svg>
