<svg xmlns="http://www.w3.org/2000/svg" width="64" height="71" fill="none"><path d="M62.083 28.654H15.311l-4.327-8.671a1.591 1.591 0 0 0-1.433-.88h-7.96a1.592 1.592 0 1 0 0 3.183h6.976l4.268 8.537 5.748 20.117h-1.072a1.592 1.592 0 0 0-1.592 1.592v6.367a1.592 1.592 0 0 0 1.592 1.592h5.66a6.302 6.302 0 0 0-.885 3.184 6.368 6.368 0 0 0 12.735 0 6.301 6.301 0 0 0-.885-3.184h8.138a6.301 6.301 0 0 0-.885 3.184 6.368 6.368 0 1 0 6.367-6.367H19.102v-3.184h36.614a1.591 1.591 0 0 0 1.531-1.156l6.367-22.286a1.593 1.593 0 0 0-1.53-2.028ZM47.756 60.49a3.184 3.184 0 1 1 0 6.368 3.184 3.184 0 0 1 0-6.368Zm-19.102 0a3.184 3.184 0 1 1 0 6.368 3.184 3.184 0 0 1 0-6.368Zm0-9.551h-6.76l-2.273-7.96h9.033v7.96Zm0-11.143H18.71l-2.273-7.96h12.216v7.96ZM44.572 50.94H31.837v-7.96h12.735v7.96Zm0-11.143H31.837v-7.96h12.735v7.96Zm9.943 11.143h-6.759v-7.96h9.032l-2.273 7.96ZM57.7 39.797h-9.943v-7.96h12.216l-2.273 7.96Z" fill="#fff"/><path d="M52.142 25.333a1.57 1.57 0 0 0 1.505-.12c.26-.169.463-.408.588-.69a17.212 17.212 0 0 0 1.48-7.012 17.51 17.51 0 0 0-35.02 0 17.211 17.211 0 0 0 1.474 7.012 1.592 1.592 0 0 0 2.91-1.29 14.055 14.055 0 0 1-1.2-5.722 14.327 14.327 0 0 1 28.653 0c.005 1.97-.403 3.92-1.2 5.722a1.592 1.592 0 0 0 .81 2.1Z" fill="#fff"/><path d="M39.797 27.062V25.47h3.184a1.592 1.592 0 0 0 1.591-1.591V17.51a1.592 1.592 0 0 0-1.592-1.592h-7.959v-3.184h7.96a1.592 1.592 0 1 0 0-3.183h-3.184V7.96a1.592 1.592 0 1 0-3.184 0v1.592h-3.184a1.592 1.592 0 0 0-1.592 1.591v6.368a1.592 1.592 0 0 0 1.592 1.592h7.96v3.184h-7.96a1.592 1.592 0 0 0 0 3.183h3.184v1.592a1.592 1.592 0 1 0 3.184 0Z" fill="#fff"/></svg>